# xmcd
#
# Track frame offsets:
#	150
#	11468
#	24383
#	35828
#	46246
#	56499
#	70284
#	82157
#	94315
#	105640
#	115758
#	126191
#
# Disc length: 1908 seconds
#
# Revision: 1
# Processed by: cddbd v1.5.2PL0 Copyright (c) Steve Scherf et al.
# Submitted via: audiograbber 1.83.01
#
DISCID=9e07720c
DTITLE=Johnny Cash - I Walk The Line
DYEAR=1964
DGENRE=Country
TTITLE0=I Walk The Line
TTITLE1=Bad News
TTITLE2=Folsom Prison Blues
TTITLE3=Give My Love To Rose
TTITLE4=Hey Porter
TTITLE5=I Still Miss Someone
TTITLE6=Understand Your Man
TTITLE7=Wreck Of The Old 97
TTITLE8=Still In Town
TTITLE9=Big River
TTITLE10=Goodbye Little Darlin' Goodbye
TTITLE11=Troublesome Waters
EXTD=
EXTT0=
EXTT1=
EXTT2=
EXTT3=
EXTT4=
EXTT5=
EXTT6=
EXTT7=
EXTT8=
EXTT9=
EXTT10=
EXTT11=
PLAYORDER=
